<?xml version="1.0" encoding="UTF-8"?>
<svg id="Layer_2" data-name="Layer 2" xmlns="http://www.w3.org/2000/svg" viewBox="0 0 819 178.32">
  <defs>
    <style>
      .cls-1 {
        fill: #fbfbfc;
      }

      .cls-2 {
        fill: #fe6702;
      }
    </style>
  </defs>
  <g id="Layer_2-2" data-name="Layer 2">
    <g>
      <path class="cls-1" d="M71,3.13l-14,37h39L109,3.13h33c.22,1.14-.15,1.99-.46,3.04-4.1,13.78-12.92,30.67-18.3,44.7-6.58,17.17-13.15,34.65-18.24,52.26h-34l16-40h-40l-14,40H0L38,3.13h33Z"/>
      <path class="cls-1" d="M174,103.13L211.16,4.79l.78-1.22,2.51-.49c19.12,1.26,40.06-1.57,58.96.14,23.5,2.13,25.39,19.28,14.03,36.84-6.44,9.96-17.4,15.53-28.34,19.15l3.91,43.91h-33v-56c10.21,1.51,23.8-.16,29.21-10.29,8.4-15.75-16.09-12.66-25.08-12.58l-29.13,78.87h-31Z"/>
      <path class="cls-1" d="M399,3.13c1.01,1-7.35,18.8-8.13,21.87l-49.77.23-6.11,15.89c3.99-.73,7.72.89,11.45,1.05,9.58.42,19.07-1.49,29.06-1.05,3.32.15.09,3.42-.7,5.31-2.42,5.8-4.52,11.77-6.94,17.56l-41.23.27c-2.75.88-4.94,13.67-7.62,16.39-.24,1.88-.05,1.41,1.46,1.47,5.88.26,10.68-.89,15.97-1.05,10.81-.33,21.98,1.1,32.54-.95,1.57,1.64-8.33,19.3-8,23h-82L317,3.13h82Z"/>
      <polygon class="cls-1" points="193 3.13 155.5 103.13 123 103.13 161.5 3.13 193 3.13"/>
      <path class="cls-1" d="M692.5,2.13c.49.13,1.69,1.47,1.33,2.26l-8.82,60.74c2.12-1.4,3.44-4.48,4.8-6.69,10.46-16.99,20.34-34.37,30.37-51.62.84-1.44,1.69-2.99,1.82-4.69h36l-10.5,64.01c13.68-21.5,27.68-42.94,42-64.01h29.5l-.53,3.97-65.97,98.03h-39.5c.95-15.93,4.59-31.76,6.93-47.58.22-1.5.68-2.81-1.43-2.43l-31.01,50h-38.5l11.98-99.52c-.07-.82,1-2.48,1.52-2.48h30ZM691,4.13h-26.5c-.52,0-1.59,1.66-1.52,2.48l-10.98,95.52h35c5.82-11.18,13.21-21.84,19.81-32.69,5.07-8.34,9.73-16.92,14.67-25.33.73-1.24,1.15-3.14,3.02-2.98l-9.49,61.01h37c1.34-3.33,3.61-6.9,5.57-9.93,19.24-29.71,39.91-58.56,59.43-88.07h-26.5c-14.93,21.6-28.4,44.19-43,66-3.74,5.59-3.85,3.01-3.41-2.41l11.91-63.59h-31.5l-42.49,70,8.99-70ZM720.5,51.13c-.65,0-.65,1,0,1s.65-1,0-1Z"/>
      <path class="cls-1" d="M377,104.13L415.94,2.57c1.5-1.05,32.4-.82,36.6-.49,1.08.09,2.35-.05,3.01.99l12.95,60.06,24-61.01h29.5l-39.11,101.89c-11.8-.53-24.77,1.07-36.44.15-4.82-.38-2.92-2.76-3.7-6.3-3.52-15.97-7.37-34.64-11.82-50.18-.33-1.14-.42-2.39-1.92-2.57l-22.51,59h-29.5ZM379,102.13h27l23.5-63.01c1.02.17,2.34-.61,2.5.63,2.68,20.9,9.78,40.76,13.45,61.43.65,1.05,1.93.91,3.01.99,3.81.3,31.27.45,32.6-.49l38.94-97.56h-27l-24.51,65.01c-1.75.13-2.15-1.1-2.47-2.53-4.2-18.91-8.77-40.09-11.93-59.11-.19-1.12-.1-2.25-.1-3.37l-36.9.1-38.1,97.9Z"/>
      <path class="cls-1" d="M519.3,94.83c-20.73-20.73-.83-58.55,17.67-74.22,16.09-13.63,43.43-22.09,64.44-20.39,64.69,5.24,38.49,74.93-1.73,96.09-20.55,10.81-62.61,16.29-80.38-1.48ZM594.8,2.34c-24.63,1.5-48.37,9.13-64.79,28.3-17.23,20.12-29.27,58.95,3.75,70.23,22.68,7.75,54.95,1.75,74.17-12.31,29.79-21.8,50.55-78.01-1.52-85.34-2.59-.37-9.19-1.03-11.61-.88Z"/>
      <path class="cls-1" d="M589,150.13v18l13.17-17.82,8.84.33-9.07,27.43c-1.39-.3-6.32,1.44-5.94-1.43.8-6.05,5.95-13.29,7-19.51l-14.16,20.83-6.84.17c.16-3.15-.21-6.37-.01-9.52.09-1.36,2.27-9.45.52-9.49-2.11,2.16-6.75,18.3-7.61,18.9s-4.42-.19-5.89.1l11.07-27.92,8.93-.08Z"/>
      <path class="cls-1" d="M732,178.13c-1.06-1.05,9.22-24.21,10.13-27.87,6.6.57,21.86-3.24,23.71,5.58,1.17,5.57-4.34,15.44-8.89,18.73-.77.56-6.08,3.55-6.45,3.55h-18.5ZM740,174.13c6.87.78,13.95-1.98,17.05-8.44,5.4-11.28-1.29-11.22-10.99-10.49.45,3.22-7.43,17.58-6.06,18.93Z"/>
      <path class="cls-1" d="M722,150.13c.23,8.91-13.08,3.1-15.88,5.12-.25.18-2.43,5.58-2.12,5.87h11c-.3,9.09-1.84,4.82-6.41,5.04-2.12.1-4.88,1.58-7.49,1.07-.23,1.91-1.62,3.83-2.02,5.49-.43,1.76,0,1.38,1.42,1.43,4.09.12,8.2-1.8,12.49-1.02-.49.88-.74,5-1,5h-21c2-9.64,7.3-18.48,10-28h21Z"/>
      <path class="cls-1" d="M682,150.13c1.21,8.64-8.34,2.88-10.53,5.97l-8.05,22.08-6.42-.06c-.25-1.66.49-3.03.97-4.53,1.76-5.52,5.37-11.67,7.01-16.99.54-1.75-.24-1.42-1.46-1.47-2.16-.09-4.36.07-6.51,0-.26-.25.74-5,1-5h24Z"/>
      <path class="cls-1" d="M504,178.13c-.88-.87,7.12-20.6,8.23-23.27.78-1.87,1.25-4.67,3.22-4.79,1.53-.09,6.25-.8,5.53,1.53-1.22,3.94-4.24,9.01-5.74,13.26-.48,1.35-2.87,7.64-2.23,8.26,1.78.3,10.6-.4,11,0,.18.18.25,5,0,5h-20Z"/>
      <path class="cls-1" d="M559,150.13c.05,1.11.08,2.2-.2,3.3-1.47,5.82-5.52,14.23-7.84,20.16-.46,1.17-.87,4.3-1.03,4.47-.42.48-5.53-.18-6.93.06-1.16-1.15,8.93-23.23,9.47-27.02,1.19-1.69,4.59-.82,6.53-.97Z"/>
      <path class="cls-1" d="M639,150.13c.05,1.11.08,2.2-.2,3.3-1.47,5.82-5.52,14.23-7.84,20.16-.46,1.17-.87,4.3-1.03,4.47-.42.48-5.53-.18-6.93.06-1.16-1.15,8.93-23.23,9.47-27.02,1.19-1.69,4.59-.82,6.53-.97Z"/>
      <path class="cls-2" d="M691,4.13l-8.99,70,42.49-70h31.5l-11.91,63.59c-.44,5.42-.33,8,3.41,2.41,14.6-21.81,28.07-44.4,43-66h26.5c-19.51,29.52-40.19,58.37-59.43,88.07-1.96,3.03-4.24,6.6-5.57,9.93h-37l9.49-61.01c-1.87-.16-2.29,1.75-3.02,2.98-4.94,8.41-9.59,16.99-14.67,25.33-6.6,10.86-13.99,21.51-19.81,32.69h-35l10.98-95.52c-.07-.82,1-2.48,1.52-2.48h26.5Z"/>
      <path class="cls-2" d="M379,102.13L417.1,4.23l36.9-.1c0,1.12-.08,2.25.1,3.37,3.15,19.01,7.73,40.2,11.93,59.11.32,1.43.71,2.66,2.47,2.53l24.51-65.01h27l-38.94,97.56c-1.34.94-28.8.79-32.6.49-1.08-.09-2.35.05-3.01-.99-3.68-20.67-10.77-40.53-13.45-61.43-.16-1.24-1.48-.46-2.5-.63l-23.5,63.01h-27Z"/>
      <path class="cls-2" d="M594.8,2.34c2.42-.15,9.02.52,11.61.88,52.06,7.33,31.31,63.54,1.52,85.34-19.22,14.07-51.49,20.06-74.17,12.31-33.02-11.29-20.98-50.11-3.75-70.23,16.42-19.18,40.16-26.8,64.79-28.3ZM549,77.13c2.07,2.13,3.26,3.89,6.45,5.05,25.57,9.27,55.89-20.73,51.32-46.32-.96-5.38-6.52-10.84-11.73-12.27-24.61-6.76-54.25,20.43-50.98,44.98.62,4.65,2.13,5.68,4.93,8.56Z"/>
      <path class="cls-1" d="M549,77.13c3.61-.14,5.9,3.43,9.54,3.96,20.71,3.02,41.93-12.43,46.01-32.91,3.82-19.16-7.51-25.3-24.99-22.99-17.07,2.26-35.84,26.16-33.49,43.37.45,3.32,2.87,5.33,2.93,8.57-2.81-2.89-4.32-3.92-4.93-8.56-3.27-24.55,26.36-51.74,50.98-44.98,5.21,1.43,10.77,6.89,11.73,12.27,4.57,25.59-25.75,55.6-51.32,46.32-3.19-1.16-4.38-2.92-6.45-5.05Z"/>
    </g>
  </g>
</svg>